HIERARCHY
ROOT hip
{
  OFFSET 0 0 0
  CHANNELS 6 Xposition Yposition Zposition Zrotation Yrotation Xrotation
  JOINT abdomen
  {
    OFFSET 0 20.6881 -0.73152
    CHANNELS 3 Zrotation Xrotation Yrotation
    JOINT chest
    {
      OFFSET 0 11.7043 -0.48768
      CHANNELS 3 Zrotation Xrotation Yrotation
      JOINT neck
      {
        OFFSET 0 22.1894 -2.19456
        CHANNELS 3 Zrotation Xrotation Yrotation
        JOINT head
        {
          OFFSET -0.24384 7.07133 1.2192
          CHANNELS 3 Zrotation Xrotation Yrotation
          JOINT leftEye
          {
            OFFSET 4.14528 8.04674 8.04672
            CHANNELS 3 Zrotation Xrotation Yrotation
            End Site
            {
              OFFSET 1 0 0
            }
          }
          JOINT rightEye
          {
            OFFSET -3.6576 8.04674 8.04672
            CHANNELS 3 Zrotation Xrotation Yrotation
            End Site
            {
              OFFSET 1 0 0
            }
          }
        }
      }
      JOINT rCollar
      {
        OFFSET -2.68224 19.2634 -4.8768
        CHANNELS 3 Zrotation Xrotation Yrotation
        JOINT rShldr
        {
          OFFSET -8.77824 -1.95073 1.46304
          CHANNELS 3 Zrotation Xrotation Yrotation
          JOINT rForeArm
          {
            OFFSET -28.1742 -1.7115 0.48768
            CHANNELS 3 Zrotation Xrotation Yrotation
            JOINT rHand
            {
              OFFSET -22.5879 0.773209 7.07136
              CHANNELS 3 Zrotation Xrotation Yrotation
              JOINT rThumb1
              {
                OFFSET -1.2192 -0.487915 3.41376
                CHANNELS 3 Zrotation Xrotation Yrotation
                JOINT rThumb2
                {
                  OFFSET -3.37035 -0.52449 3.41376
                  CHANNELS 3 Zrotation Xrotation Yrotation
                  End Site
                  {
                    OFFSET -1.78271 -1.18214 1.43049
                  }
                }
              }
              JOINT rIndex1
              {
                OFFSET -7.75947 0.938293 5.60832
                CHANNELS 3 Zrotation Xrotation Yrotation
                JOINT rIndex2
                {
                  OFFSET -2.54057 -0.884171 1.56538
                  CHANNELS 3 Zrotation Xrotation Yrotation
                  End Site
                  {
                    OFFSET -1.62519 -0.234802 1.16502
                  }
                }
              }
              JOINT rMid1
              {
                OFFSET -8.24714 1.18213 3.41376
                CHANNELS 3 Zrotation Xrotation Yrotation
                JOINT rMid2
                {
                  OFFSET -3.10165 -0.590103 1.0647
                  CHANNELS 3 Zrotation Xrotation Yrotation
                  End Site
                  {
                    OFFSET -2.48547 -0.328903 0.83742
                  }
                }
              }
              JOINT rRing1
              {
                OFFSET -8.82822 0.546677 1.51678
                CHANNELS 3 Zrotation Xrotation Yrotation
                JOINT rRing2
                {
                  OFFSET -2.60934 -0.819778 -0.0198488
                  CHANNELS 3 Zrotation Xrotation Yrotation
                  End Site
                  {
                    OFFSET -2.33842 -0.294052 0.168128
                  }
                }
              }
              JOINT rPinky1
              {
                OFFSET -8.27202 -0.0477905 -0.4584
                CHANNELS 3 Zrotation Xrotation Yrotation
                JOINT rPinky2
                {
                  OFFSET -1.82734 -0.647385 -0.700984
                  CHANNELS 3 Zrotation Xrotation Yrotation
                  End Site
                  {
                    OFFSET -1.69225 -0.51767 -0.607171
                  }
                }
              }
            }
          }
        }
      }
      JOINT lCollar
      {
        OFFSET 2.68224 19.2634 -4.8768
        CHANNELS 3 Zrotation Xrotation Yrotation
        JOINT lShldr
        {
          OFFSET 8.77824 -1.95073 1.46304
          CHANNELS 3 Zrotation Xrotation Yrotation
          JOINT lForeArm
          {
            OFFSET 28.1742 -1.7115 0.48768
            CHANNELS 3 Zrotation Xrotation Yrotation
            JOINT lHand
            {
              OFFSET 22.5879 0.773209 7.07136
              CHANNELS 3 Zrotation Xrotation Yrotation
              JOINT lThumb1
              {
                OFFSET 1.2192 -0.487915 3.41376
                CHANNELS 3 Zrotation Xrotation Yrotation
                JOINT lThumb2
                {
                  OFFSET 3.37035 -0.52449 3.41376
                  CHANNELS 3 Zrotation Xrotation Yrotation
                  End Site
                  {
                    OFFSET 1.78271 -1.18214 1.43049
                  }
                }
              }
              JOINT lIndex1
              {
                OFFSET 7.75947 0.938293 5.60832
                CHANNELS 3 Zrotation Xrotation Yrotation
                JOINT lIndex2
                {
                  OFFSET 2.54057 -0.884171 1.56538
                  CHANNELS 3 Zrotation Xrotation Yrotation
                  End Site
                  {
                    OFFSET 1.62519 -0.234802 1.16502
                  }
                }
              }
              JOINT lMid1
              {
                OFFSET 8.24714 1.18213 3.41376
                CHANNELS 3 Zrotation Xrotation Yrotation
                JOINT lMid2
                {
                  OFFSET 3.10165 -0.590103 1.0647
                  CHANNELS 3 Zrotation Xrotation Yrotation
                  End Site
                  {
                    OFFSET 2.48547 -0.328903 0.83742
                  }
                }
              }
              JOINT lRing1
              {
                OFFSET 8.82822 0.546677 1.51678
                CHANNELS 3 Zrotation Xrotation Yrotation
                JOINT lRing2
                {
                  OFFSET 2.60934 -0.819778 -0.0198488
                  CHANNELS 3 Zrotation Xrotation Yrotation
                  End Site
                  {
                    OFFSET 2.33842 -0.294052 0.168128
                  }
                }
              }
              JOINT lPinky1
              {
                OFFSET 8.27202 -0.0477905 -0.4584
                CHANNELS 3 Zrotation Xrotation Yrotation
                JOINT lPinky2
                {
                  OFFSET 1.82734 -0.647385 -0.700984
                  CHANNELS 3 Zrotation Xrotation Yrotation
                  End Site
                  {
                    OFFSET 1.69225 -0.51767 -0.607171
                  }
                }
              }
            }
          }
        }
      }
    }
  }
  JOINT rButtock
  {
    OFFSET -8.77824 4.35084 1.2192
    CHANNELS 3 Zrotation Xrotation Yrotation
    JOINT rThigh
    {
      OFFSET 0 -1.70687 -2.19456
      CHANNELS 3 Zrotation Xrotation Yrotation
      JOINT rShin
      {
        OFFSET 0 -36.8199 0.73152
        CHANNELS 3 Zrotation Xrotation Yrotation
        JOINT rFoot
        {
          OFFSET 0.73152 -45.1104 -5.12064
          CHANNELS 3 Zrotation Xrotation Yrotation
          End Site
          {
            OFFSET -1.1221 -3.69964 12.103
          }
        }
      }
    }
  }
  JOINT lButtock
  {
    OFFSET 8.77824 4.35084 1.2192
    CHANNELS 3 Zrotation Xrotation Yrotation
    JOINT lThigh
    {
      OFFSET 0 -1.70687 -2.19456
      CHANNELS 3 Zrotation Xrotation Yrotation
      JOINT lShin
      {
        OFFSET 0 -36.8199 0.73152
        CHANNELS 3 Zrotation Xrotation Yrotation
        JOINT lFoot
        {
          OFFSET -0.73152 -45.1104 -5.12064
          CHANNELS 3 Zrotation Xrotation Yrotation
          End Site
          {
            OFFSET 1.1221 -3.69964 12.103
          }
        }
      }
    }
  }
}
MOTION
Frames:	4
Frame Time:	0.03333
-2.2245730785652995 0.5045326352119446 40.80833488702774 -11.850397735834122 -60.33924221992493 4.62712436914444 1.51652030646801 15.095770061016083 13.627790361642838 -0.728816706687212 -13.433580994606018 3.0936478078365326 -2.6237432286143303 15.47486275434494 7.790423780679703 9.869331568479538 -23.863254189491272 17.567278146743774 0.24978398345410824 -3.5014619305729866 -0.005848892033100128 -0.9444298502057791 -0.24467932060360909 -0.5174062913283706 0.3038022480905056 0.5109536089003086 -1.610459815710783 30.684143900871277 80.17709612846375 42.92857825756073 -27.17364728450775 -39.7632497549057 88.74050974845886 -33.062995076179504 -79.46277558803558 -43.46636116504669 0.03738509025424719 -0.16432637348771095 1.7517175152897835 -0.6899266876280308 0.06560385692864656 0.13929616659879684 0.06816976703703403 -0.9235303290188313 0.30703581869602203 7.726308256387711 6.101393848657608 0.8849133923649788 -0.11494774371385574 0.2835024520754814 -0.9554300084710121 3.075815811753273 0.818057656288147 1.1424901150166988 1.0466790944337845 -1.8936221301555634 -0.563236903399229 10.64350426197052 -0.30923363752663136 0.2135135605931282 -0.6464940123260021 0.48597855493426323 0.4252086253836751 2.9526088759303093 -0.31569231301546097 -1.0440807044506073 -1.2656177580356598 -0.27173811569809914 0.574445896781981 -64.87872540950775 -2.7994295954704285 -37.9813027381897 26.555880904197693 -31.013393104076385 -68.75144898891449 3.1914274021983147 29.67208743095398 -10.67261092364788 -0.23568134754896164 0.7366168219596148 -0.793884415179491 0.8054897468537092 1.0678103752434254 -1.2004826590418816 -0.4061903804540634 0.5906860437244177 -0.7814309187233448 -7.59261891245842 6.069413870573044 -0.026070610620081425 0.886357007548213 0.6405742093920708 -1.1234750971198082 -3.304598182439804 2.2006234154105186 -0.18891166895627975 -0.3718748688697815 0.3533698059618473 -0.81631975248456 -11.247898489236832 0.46803658828139305 -0.19108333624899387 0.21638134494423866 0.04362315405160189 -0.5692025553435087 -2.9833634197711945 -0.0808425759896636 -1.5570670925080776 0.08676749188452959 -0.34453104715794325 -0.5854814685881138 -24.20788049697876 -34.648507833480835 -33.702060878276825 3.162628524005413 79.14198875427246 -0.8772701025009155 -10.88004156947136 -22.76957541704178 -20.881842076778412 -0.28701111674308777 -0.1283596269786358 0.23197193630039692 57.852866649627686 -34.56353276968002 56.68969988822937 3.329431414604187 64.13464307785034 -0.32822631765156984 1.9638577848672867 2.8792226314544678 8.668340295553207
-2.3679611263796687 0.4499467611312866 40.90372899919748 -11.396757066249847 -58.542736172676086 4.370117783546448 1.1842226050794125 15.096169710159302 13.960702121257782 -0.5569405853748322 -13.466195315122604 3.2781462371349335 -2.648799419403076 15.236575305461884 7.2570497542619705 9.715694636106491 -23.95520031452179 17.70196795463562 0.4817026946693659 -3.213995508849621 -0.2574952505528927 -0.6927479524165392 -0.23398367688059807 -0.4035429982468486 0.5169424787163734 0.524145383387804 -1.6516867093741894 31.99244499206543 80.24572312831879 41.96822136640549 -27.587850093841553 -40.022351145744324 88.9897084236145 -33.2358580827713 -78.06003391742706 -42.962422370910645 -0.11945875827223063 -0.11648112908005714 1.9296099990606308 -0.8449022099375725 -0.031006797216832638 0.24674445390701294 0.18805461935698986 -0.9340732544660568 -0.017930567264556885 7.621321901679039 6.195257753133774 0.803754273802042 -0.14154712669551373 0.13003550469875336 -1.3458174839615822 3.188750222325325 0.8807319961488247 1.0562750324606895 0.7800279557704926 -1.7660602927207947 -0.43394009582698345 10.500386953353882 -0.18636650405824184 0.28222572058439255 -0.695562344044447 0.35883279517292976 0.5805426416918635 2.9286785423755646 -0.3313601016998291 -0.5238233506679535 -1.2968978472054005 -0.12850094586610794 0.622530821710825 -65.14187157154083 -0.6359302997589111 -39.58581894636154 27.040035724639893 -31.75077795982361 -69.83986258506775 2.5433124974370003 28.373050689697266 -11.111600697040558 -0.3438826650381088 0.9297082107514143 -0.9678846783936024 0.7568814139813185 1.198177132755518 -0.39857927709817886 -0.14148753136396408 0.45031774789094925 -0.6310778483748436 -7.730601131916046 6.012986898422241 -0.015864050947129726 0.8151272591203451 0.7321558054536581 -1.089382292702794 -3.30261267721653 2.0551209524273872 -0.127435103058815 -0.8758984878659248 0.2913663536310196 -0.8849759213626385 -11.191238835453987 0.2865343540906906 -0.13614021241664886 0.3376373089849949 -0.01030349638313055 -0.5126570630818605 -2.7916007302701473 -0.13037601951509714 -1.6339620016515255 0.16821830067783594 -0.2808324387297034 -0.5427322536706924 -25.63364088535309 -35.29533326625824 -34.85140085220337 4.1962955519557 79.19531106948853 -1.1028867959976196 -11.117134764790535 -22.755461633205414 -20.568152368068695 -0.1489792764186859 0.05483558401465416 0.33021186478435993 57.61262118816376 -33.88058602809906 56.238369941711426 4.957437068223953 64.51412200927734 -0.08246757555752993 1.8252542987465858 1.7907392978668213 8.945018872618675
-2.533318686299026 0.4502493143081665 40.96687863022089 -15.409324318170547 -61.06201708316803 2.9446202516555786 1.798180416226387 14.92792546749115 14.683914184570312 -0.99218993447721 -13.824708759784698 2.8804832696914673 -3.032553791999817 15.358594357967377 7.935442104935646 9.14885401725769 -23.755799531936646 19.262849986553192 0.27845864184200764 -3.2985682412981987 -0.452549010515213 -0.7199842762202024 -0.312149953097105 -0.45203264337033033 0.20942486822605133 0.23895347490906715 -1.69797258451581 28.772171437740326 83.22868287563324 45.70688545703888 -28.39666485786438 -41.03755384683609 91.7589819431305 -34.45642948150635 -79.38132226467133 -44.430556297302246 -0.5873290495947003 0.16066884621977806 2.2706032544374466 0.023264475166797638 -0.14551348518580198 0.36580637097358704 0.35120974760502577 -1.0064089111983776 -0.5020947754383087 7.82035656273365 6.0880860686302185 0.8564666379243135 -0.24614078924059868 -0.05565361585468054 -1.8060188367962837 3.43291237950325 0.8654935285449028 0.9166248142719269 1.0978160798549652 -1.8424247950315475 -0.5770200630649924 10.689419656991959 0.10510546155273914 0.6719201803207397 -0.20116517320275307 -0.372657235711813 0.5977299017831683 2.712971605360508 -0.2864413149654865 -0.5499950051307678 -1.4779011905193329 0.18057921901345253 0.7668940164148808 -63.7277090549469 -0.39155155420303345 -39.99431669712067 27.888911962509155 -31.18864595890045 -71.16668701171875 1.2396035995334387 27.229689359664917 -11.130252107977867 -0.31858842819929123 0.9900805447250605 -0.6722391955554485 0.6800759397447109 1.2792536057531834 -0.182107575237751 0.5921757593750954 0.4763241112232208 -0.2763402834534645 -7.747209370136261 5.864422023296356 -0.016434104181826115 0.7673923205584288 0.610051341354847 -0.8928133361041546 -3.2369501888751984 2.0652365684509277 -0.27124978601932526 -1.639549545943737 0.3923692926764488 -0.9263431280851364 -11.006997227668762 0.06354756653308868 0.06959645077586174 0.33024363219738007 -0.1821198547258973 -0.5167103838175535 -2.7723000571131706 -0.34430062863975763 -1.8018307350575924 0.14168538618832827 -0.4137970833107829 -0.5151599831879139 -26.68733060359955 -35.27741611003876 -34.74356532096863 3.298206143081188 80.654057264328 -1.251116394996643 -10.615597888827324 -23.45078945159912 -20.525840520858765 0.38553938269615173 -0.07046883925795555 0.2434729551896453 60.40851294994354 -33.914172649383545 59.227391481399536 5.718082040548325 65.14291763305664 -0.03290571738034487 1.9492645561695099 1.5857715904712677 9.329795837402344
-2.6863929061219096 0.37322914600372314 41.00840426236391 -17.56952315568924 -58.619699478149414 -0.04950687289237976 1.8177568539977074 14.584047496318817 14.999910593032837 -1.0163082741200924 -13.876860290765762 2.5080186501145363 -3.6085638776421547 15.361657440662384 7.604498416185379 8.772219568490982 -23.64935874938965 18.910917341709137 0.22642655298113823 -3.2993943616747856 -0.4720032401382923 -0.5749297421425581 -0.18685827031731606 -0.41524463798850775 0.15202593058347702 0.1423921063542366 -1.7225919105112553 29.086899161338806 83.3785754442215 45.76249301433563 -27.91105628013611 -41.36172294616699 92.58071422576904 -33.60042929649353 -76.91297113895416 -42.096141278743744 -0.712024737149477 0.08248982951045036 1.777864694595337 0.4131448455154896 -0.12355767656117678 0.2543887495994568 0.48086073249578476 -0.7709713093936443 -0.5182500556111336 7.909898087382317 6.2474749982357025 0.7925393711775541 -0.2623485401272774 -0.19415894988924265 -2.080552652478218 3.4356696903705597 0.8675893396139145 0.8928834088146687 0.9173007309436798 -1.7334754765033722 -0.43288431130349636 10.819420292973518 0.3523742873221636 0.661621168255806 0.004133284091949463 -0.6947115808725357 0.274645839817822 2.4812408164143562 -0.42758937925100327 -0.4538052901625633 -1.5268761478364468 0.491691492497921 0.5547047965228558 -62.83962965011597 1.1432614177465439 -38.5813370347023 28.362080454826355 -30.34546136856079 -70.78538417816162 0.731574771925807 27.40560472011566 -10.939705967903137 -0.19002730026841164 0.940977344289422 -0.19235547864809632 0.7628272846341133 1.1220587231218815 -0.16232561320066452 0.9034430980682373 0.3362075239419937 -0.23451358079910278 -7.792695611715317 5.958270505070686 0.03888075705617666 0.9594944771379232 0.7601911760866642 -0.6949387304484844 -3.1435878574848175 1.8978311866521835 -0.1311786286532879 -2.8324687108397484 0.3518942557275295 -0.768391527235508 -10.96565768122673 0.20241323858499527 0.004212912172079086 0.4586847312748432 -0.31879961024969816 -0.6734635401517153 -2.639467678964138 -0.3918430348858237 -1.7626315914094448 0.049194772727787495 -0.17515743733383715 -0.3606037236750126 -27.530536651611328 -35.304661989212036 -35.43359845876694 2.1543727442622185 80.71759343147278 -0.8567297458648682 -10.335862934589386 -23.598614037036896 -20.204511880874634 0.47529011964797974 -0.21393818780779839 0.15092086046934128 62.08026945590973 -34.40339148044586 60.09652376174927 6.25714436173439 66.78012728691101 -1.6209444031119347 2.242514491081238 0.7998575270175934 9.063923209905624
